<?xml version="1.0" encoding="UTF-8"?>
<svg id="Layer_2" xmlns="http://www.w3.org/2000/svg" xmlns:xlink="http://www.w3.org/1999/xlink" viewBox="0 0 92.44 33.88">
  <defs>
    <style>
      .cls-1 {
        fill: #144b86;
      }

      .cls-2 {
        fill: #8cc540;
      }

      .cls-3 {
        fill: #595a5c;
      }

      .cls-4 {
        fill: url(#linear-gradient);
      }
    </style>
    <linearGradient id="linear-gradient" x1="37.44" y1="8.95" x2="52.1" y2="8.95" gradientUnits="userSpaceOnUse">
      <stop offset="0" stop-color="#19b3e8"/>
      <stop offset="1" stop-color="#09508e"/>
    </linearGradient>
  </defs>
  <g id="Layer_1-2" data-name="Layer_1">
    <g>
      <path class="cls-1" d="M35.78,8.95c0-3.27,1.51-6.2,3.87-8.11-1.14-.54-2.42-.84-3.76-.84-4.94,0-8.95,4.01-8.95,8.95s4.01,8.95,8.95,8.95c1.35,0,2.62-.31,3.76-.84-2.36-1.91-3.87-4.84-3.87-8.11"/>
      <polygon class="cls-3" points="7.15 25.63 5.45 25.63 1.36 29.8 1.36 25.63 0 25.63 0 33.84 1.36 33.84 1.36 31.67 2.73 30.25 5.65 33.84 7.34 33.84 3.7 29.23 7.15 25.63"/>
      <rect class="cls-3" x="10.28" y="25.63" width="1.36" height="8.21"/>
      <polygon class="cls-3" points="14.69 26.91 17.36 26.91 17.36 33.84 18.72 33.84 18.72 26.91 21.4 26.91 21.4 25.63 14.69 25.63 14.69 26.91"/>
      <path class="cls-3" d="M27.64,25.6c-2.53,0-4.5,1.81-4.5,4.13s1.98,4.15,4.5,4.15,4.49-1.82,4.49-4.15-1.97-4.13-4.49-4.13M27.64,32.6c-1.72,0-3.13-1.29-3.13-2.87s1.4-2.85,3.13-2.85,3.1,1.28,3.1,2.85-1.39,2.87-3.1,2.87"/>
      <path class="cls-3" d="M38.43,29.03c-1.15-.33-1.85-.59-1.85-1.29,0-.6.79-.82,1.53-.82s1.53.23,2.14.62l.2.13.58-1.22-.16-.1c-.74-.47-1.75-.76-2.71-.76-1.82,0-3.04.89-3.04,2.23,0,1.66,1.51,2.09,2.72,2.43,1.17.33,1.87.58,1.87,1.31,0,.73-.88.99-1.7.99-.89,0-1.88-.4-2.58-1.04l-.2-.19-.63,1.19.12.11c.86.78,2.08,1.25,3.28,1.25,1.9,0,3.17-.94,3.17-2.35,0-1.7-1.52-2.14-2.74-2.49"/>
      <polygon class="cls-3" points="50.64 29.14 46.13 29.14 46.13 25.63 44.77 25.63 44.77 33.84 46.13 33.84 46.13 30.41 50.64 30.41 50.64 33.84 52 33.84 52 25.63 50.64 25.63 50.64 29.14"/>
      <rect class="cls-3" x="56.16" y="25.63" width="1.36" height="8.21"/>
      <polygon class="cls-3" points="67.56 31.48 62.97 25.63 61.68 25.63 61.68 33.84 63.05 33.84 63.05 27.99 67.64 33.84 68.91 33.84 68.91 25.63 67.56 25.63 67.56 31.48"/>
      <path class="cls-3" d="M76.61,25.63h-3.52v8.21h3.49c2.54,0,4.46-1.77,4.46-4.11s-1.9-4.11-4.42-4.11M76.62,32.56h-2.17v-5.65h2.13c1.75,0,3.07,1.22,3.07,2.83s-1.3,2.82-3.03,2.82"/>
      <path class="cls-3" d="M87.95,25.6c-2.53,0-4.5,1.81-4.5,4.13s1.98,4.15,4.5,4.15,4.49-1.82,4.49-4.15-1.97-4.13-4.49-4.13M87.95,32.6c-1.72,0-3.13-1.29-3.13-2.87s1.4-2.85,3.13-2.85,3.1,1.28,3.1,2.85-1.39,2.87-3.1,2.87"/>
      <path class="cls-2" d="M59.55.53l-3.36,4.25c-1.12,1.37-2.36,2.52-3.63,3.41-.46.3-.96.59-1.51.86.23.13.45.26.66.4,1.27.89,2.51,2.04,3.63,3.41l3.55,4.5c3.63-1.14,6.27-4.53,6.27-8.54,0-3.76-2.32-6.97-5.6-8.3"/>
      <path class="cls-4" d="M37.44,8.95c0,4.94,4.01,8.95,8.95,8.95,1.98,0,3.81-.65,5.29-1.74l-2.6-3.29c-1.12-1.37-2.36-2.52-3.63-3.41-.21-.14-.43-.27-.66-.4.55-.27,1.06-.57,1.51-.86,1.27-.89,2.51-2.04,3.63-3.41l2.16-2.73C50.55.77,48.56,0,46.39,0,41.45,0,37.44,4.01,37.44,8.95"/>
    </g>
  </g>
</svg>